<?xml version="1.0" encoding="UTF-8" standalone="no"?>
<!-- Created with Inkscape (http://www.inkscape.org/) -->

<svg
   width="512"
   height="512"
   viewBox="0 0 135.46666 135.46667"
   version="1.1"
   id="svg5"
   inkscape:version="1.1.2 (0a00cf5339, 2022-02-04)"
   sodipodi:docname="icon.svg"
   xmlns:inkscape="http://www.inkscape.org/namespaces/inkscape"
   xmlns:sodipodi="http://sodipodi.sourceforge.net/DTD/sodipodi-0.dtd"
   xmlns="http://www.w3.org/2000/svg"
   xmlns:svg="http://www.w3.org/2000/svg">
  <sodipodi:namedview
     id="namedview7"
     pagecolor="#ffffff"
     bordercolor="#666666"
     borderopacity="1.0"
     inkscape:pageshadow="2"
     inkscape:pageopacity="0.0"
     inkscape:pagecheckerboard="0"
     inkscape:document-units="mm"
     showgrid="false"
     showguides="false"
     units="px"
     width="512px"
     inkscape:lockguides="false"
     inkscape:zoom="0.93717733"
     inkscape:cx="163.78971"
     inkscape:cy="288.09916"
     inkscape:window-width="1366"
     inkscape:window-height="741"
     inkscape:window-x="0"
     inkscape:window-y="27"
     inkscape:window-maximized="1"
     inkscape:current-layer="layer3" />
  <defs
     id="defs2" />
  <g
     inkscape:groupmode="layer"
     id="layer3"
     inkscape:label="white-bkg">
    <ellipse
       style="fill:#ffffff;fill-opacity:1;stroke-width:0.25565"
       id="path42"
       cx="67.330223"
       cy="66.835266"
       rx="60.953197"
       ry="52.928982" />
  </g>
  <g
     inkscape:label="main"
     inkscape:groupmode="layer"
     id="layer1"
     style="display:inline">
    <g
       id="g387"
       transform="matrix(2.6436377,0,0,2.6436377,-46.672452,-103.35407)"
       style="fill:#ffba01;fill-opacity:1">
      <path
         style="fill:#ffba01;fill-opacity:1;stroke-width:0.264583"
         d="M 40.595038,89.111727 C 36.234111,88.55938 31.513756,86.567639 28.058747,83.822071 21.245711,78.408 17.794955,69.31353 19.293379,60.720936 20.684038,52.746307 25.50248,46.331278 32.753327,42.801044 c 3.642139,-1.773254 6.566827,-2.449897 10.619836,-2.456956 9.339871,-0.01627 17.720108,5.094405 21.820957,13.307475 2.96064,5.929486 3.502485,12.429804 1.543836,18.520833 -2.125213,6.609013 -7.130714,12.217011 -13.385279,14.996424 -3.560728,1.582322 -9.029227,2.41514 -12.757639,1.942907 z M 52.613992,77.331255 c 5.541179,-1.173867 9.138523,-6.381277 9.138523,-13.228651 0,-7.28604 -3.918019,-12.400798 -10.243415,-13.372208 -6.446263,-0.989973 -12.064377,2.846199 -13.57772,9.271167 -0.447657,1.900547 -0.451185,6.358503 -0.0065,8.202083 1.690975,7.010331 7.536721,10.642798 14.689104,9.127609 z M 46.76624,74.40055 c -3.882702,-1.430568 -6.216181,-6.688675 -5.431322,-12.238581 0.764338,-5.404799 3.353473,-8.368961 7.608449,-8.71051 4.5184,-0.362694 7.912663,2.611288 8.884822,7.784693 0.397571,2.1157 0.122716,5.937693 -0.57223,7.95712 -0.663959,1.929387 -2.418657,4.041047 -4.063429,4.890064 -1.42698,0.736592 -4.831884,0.904666 -6.42629,0.317214 z M 31.863788,64.102604 V 51.005729 h -1.719792 -1.719791 v 13.096875 13.096875 h 1.719791 1.719792 z"
         id="path393" />
      <path
         style="fill:#ffba01;fill-opacity:1;stroke-width:0.264583"
         d="M 38.478371,88.694868 C 31.26068,87.147103 24.847877,82.224493 21.607321,75.744271 18.285313,69.101168 18.16219,61.168025 21.277906,54.51926 c 2.665406,-5.687828 7.554266,-10.290737 13.288873,-12.511603 5.070846,-1.963808 11.16598,-2.14145 16.347009,-0.47643 7.938031,2.551035 13.958387,8.935758 16.185512,17.165102 0.868024,3.207388 0.868024,8.928078 0,12.135468 -2.54186,9.392309 -10.045089,16.325574 -19.475251,17.99586 -2.164221,0.383331 -7.071091,0.312087 -9.145678,-0.132789 z M 52.9378,77.35957 c 2.947302,-0.784749 5.912162,-3.120612 7.223487,-5.69102 2.161429,-4.236752 2.082178,-11.506064 -0.167285,-15.344485 -2.653652,-4.528116 -7.734837,-6.681497 -13.102087,-5.552601 -5.581102,1.173875 -8.934702,5.562211 -9.384117,12.279537 -0.476068,7.11571 2.928819,12.71473 8.671173,14.258936 1.827644,0.491482 5.01156,0.514863 6.758829,0.04963 z m -5.375759,-2.795156 c -1.267111,-0.301805 -3.164352,-1.504455 -3.904795,-2.475227 -0.36294,-0.475837 -0.985128,-1.574512 -1.38264,-2.441496 -0.61655,-1.34471 -0.739812,-2.018649 -0.838865,-4.586514 -0.174933,-4.535004 0.642022,-7.318451 2.773642,-9.45007 1.459217,-1.459219 3.027781,-2.063942 5.383015,-2.075298 4.615531,-0.02225 7.401634,2.851499 8.241924,8.501215 0.403783,2.714833 -0.04151,5.98131 -1.11827,8.203215 -1.723347,3.55614 -5.295018,5.243327 -9.154011,4.324175 z M 31.99608,64.102604 V 51.138021 l -1.785938,-0.07823 -1.785937,-0.07823 v 13.121052 13.121053 l 1.785937,-0.07824 1.785938,-0.07823 z"
         id="path391" />
    </g>
    <path
       style="fill:#000000;stroke-width:0.264583"
       id="path367"
       d="" />
    <path
       style="fill:#000000;stroke-width:0.264583"
       id="path241"
       d="" />
    <path
       style="fill:#000000;stroke-width:0.264583"
       id="path220"
       d="" />
    <path
       style="fill:#000000;stroke-width:0.264583"
       id="path101"
       d="" />
    <path
       style="fill:#000000;stroke-width:0.264583"
       id="path81"
       d="" />
  </g>
</svg>
